<svg xmlns="http://www.w3.org/2000/svg" xmlns:xlink="http://www.w3.org/1999/xlink" width="624.451" height="603.953" viewBox="0 0 624.451 603.953">
  <defs>
    <clipPath id="clip-path">
      <rect id="Rectangle_2409" data-name="Rectangle 2409" width="35.861" height="92.703"/>
    </clipPath>
  </defs>
  <g id="whatwillyoulearn" transform="translate(-1745.876 -335.572)">
    <g id="Artboard1" transform="translate(1745.876 335.572)">
      <rect id="Rectangle_2407" data-name="Rectangle 2407" width="624.451" height="603.954" transform="translate(0)" fill="none"/>
      <g id="Group_5525" data-name="Group 5525" transform="translate(38.57 69.706)">
        <g id="Group_5506" data-name="Group 5506" transform="translate(249.305 96.487)">
          <rect id="Rectangle_2408" data-name="Rectangle 2408" width="35.861" height="92.703" fill="#fff"/>
          <g id="Group_5505" data-name="Group 5505" clip-path="url(#clip-path)">
            <g id="Group_5504" data-name="Group 5504" transform="translate(-4.084 1.933)">
              <path id="Path_4796" data-name="Path 4796" d="M288.774,163.755l38.076-13.2-36.267-12.581-4.083,11.1Z" transform="translate(-286.499 -137.969)" fill-rule="evenodd"/>
            </g>
          </g>
        </g>
        <g id="Group_5507" data-name="Group 5507" transform="translate(247.422 94.604)">
          <path id="Path_4797" data-name="Path 4797" d="M337.157,200.458a1.884,1.884,0,0,0-1.879-1.883H299.417a1.884,1.884,0,0,0-1.883,1.883v92.7a1.884,1.884,0,0,0,1.883,1.883h35.861a1.884,1.884,0,0,0,1.879-1.883Zm-3.762,1.883v88.937H301.3V202.341Z" transform="translate(-297.534 -198.575)" fill-rule="evenodd"/>
        </g>
        <g id="Group_5508" data-name="Group 5508" transform="translate(235.93 24.992)">
          <ellipse id="Ellipse_357" data-name="Ellipse 357" cx="34.167" cy="43.436" rx="34.167" ry="43.436" transform="translate(0 0)" fill="#fff"/>
        </g>
        <g id="Group_5509" data-name="Group 5509" transform="translate(233.803 22.867)">
          <path id="Path_4798" data-name="Path 4798" d="M731.663,41.758c-19.878,0-36.294,20.292-36.294,45.561s16.417,45.563,36.294,45.563,36.294-20.3,36.294-45.563S751.54,41.758,731.663,41.758Zm0,4.251c17.839,0,32.043,18.63,32.043,41.309s-14.2,41.312-32.043,41.312S699.62,110,699.62,87.319,713.821,46.009,731.663,46.009Z" transform="translate(-695.369 -41.758)" fill-rule="evenodd"/>
        </g>
        <g id="Group_5510" data-name="Group 5510" transform="translate(54.267 348.012)">
          <path id="Path_4799" data-name="Path 4799" d="M256.349,544.217s-8.922,50.965,107.92,33.249c68.614-10.4,98.317-20.328,111.1-26.57,5.332-2.6,7.987-4.72,9.295-6.089l102.16,34.06a2.413,2.413,0,0,0,.388.091s45.714,6.147,78.249-1.2c13.544-3.061,24.8-8.53,30.033-17.405,3.59-6.082,4.481-13.786,1.286-23.519a2.125,2.125,0,1,0-4.039,1.326c2.72,8.288,2.148,14.855-.906,20.035-4.731,8.016-15.076,12.653-27.309,15.416-30.652,6.922-73.229,1.594-76.539,1.163-.011,0-103.4-34.466-103.4-34.466l-.674,4.14-1.913-3.05s-1.724,2.376-8.5,5.68c-12.646,6.172-42.033,15.9-109.879,26.189-33.749,5.118-56.642,4.459-72.153.982-13.968-3.133-21.777-8.523-26.07-13.964-6.093-7.723-4.868-15.347-4.868-15.347a2.126,2.126,0,0,0-4.191-.717Z" transform="translate(-256.192 -535.366)" fill-rule="evenodd"/>
        </g>
        <g id="Group_5511" data-name="Group 5511" transform="translate(54.509 134.614)">
          <path id="Path_4800" data-name="Path 4800" d="M703.815,702.247c.865,2.864,4.006,10.371,2.333,8.233-55.324-70.795-157.189-62.419-166.516-45.319H393.717c-43.159-14.587-85.457-1.988-126.426,52.4-.4-8.338,52.909-213.094,195.065-222.395,0,0,18.77,46.847,35.094-1.273C497.45,493.889,639.9,490.475,703.815,702.247Z" transform="translate(-267.288 -493.886)" fill="#2f8d46" fill-rule="evenodd"/>
        </g>
        <g id="Group_5512" data-name="Group 5512" transform="translate(249.545 152.156)">
          <path id="Path_4801" data-name="Path 4801" d="M61.734,189.182,45.07,379.633,60.914,427l19.166-49.445L67.688,188.514Z" transform="translate(-45.07 -188.514)" fill="#fff" fill-rule="evenodd"/>
        </g>
        <g id="Group_5513" data-name="Group 5513" transform="translate(262.87 152.787)">
          <path id="Path_4802" data-name="Path 4802" d="M48.989,191.391s6.9-6.142,11.712.13l-1,7.24L51.78,198.6Z" transform="translate(-48.989 -188.699)" fill-rule="evenodd"/>
        </g>
        <g id="Group_5514" data-name="Group 5514" transform="translate(186.949 222.382)">
          <path id="Path_4803" data-name="Path 4803" d="M303,499.714l-7.621,17.937a2.125,2.125,0,0,0,3.912,1.663l7.621-17.938A2.125,2.125,0,0,0,303,499.714Z" transform="translate(-295.211 -498.421)" fill-rule="evenodd"/>
        </g>
        <g id="Group_5515" data-name="Group 5515" transform="translate(338.51 222.382)">
          <path id="Path_4804" data-name="Path 4804" d="M340.232,501.855,351.443,516.2a2.125,2.125,0,0,0,3.351-2.615l-11.211-14.352a2.126,2.126,0,0,0-3.351,2.619Z" transform="translate(-339.782 -498.421)" fill-rule="evenodd"/>
        </g>
        <g id="Group_5516" data-name="Group 5516" transform="translate(163.441 233.723)">
          <rect id="Rectangle_2410" data-name="Rectangle 2410" width="220.338" height="146.25" transform="translate(0 0)" fill="#fff"/>
        </g>
        <g id="Group_5517" data-name="Group 5517" transform="translate(161.315 231.597)">
          <path id="Path_4805" data-name="Path 4805" d="M507.17,503.257a2.127,2.127,0,0,0-2.126-2.126H284.706a2.127,2.127,0,0,0-2.126,2.126v146.25a2.127,2.127,0,0,0,2.126,2.126H505.044a2.127,2.127,0,0,0,2.126-2.126Zm-4.249,2.126v142H286.832v-142Z" transform="translate(-282.58 -501.131)" fill-rule="evenodd"/>
        </g>
        <g id="Group_5518" data-name="Group 5518" transform="translate(238.062 289.075)">
          <path id="Path_4806" data-name="Path 4806" d="M37.645,27.729A11.735,11.735,0,0,1,26.63,20.044H48.659a11.734,11.734,0,0,1-11.014,7.685m-35.552,0A11.734,11.734,0,0,1-8.921,20.044H13.108A11.735,11.735,0,0,1,2.094,27.729M55.369,14.624H25.993A11.732,11.732,0,0,1,46.609,8.43l4.273-4.3A17.777,17.777,0,0,0,19.921,14.624h-.1A17.777,17.777,0,0,0-11.144,4.134l4.274,4.3a11.732,11.732,0,0,1,20.616,6.194H-15.63q-.052.68-.052,1.373A17.779,17.779,0,0,0,19.4,20.07h.936A17.776,17.776,0,0,0,55.422,16q0-.693-.052-1.373" transform="translate(15.683 1.778)" fill="#2f8d46"/>
        </g>
        <g id="Group_5519" data-name="Group 5519" transform="translate(163.441 379.972)">
          <rect id="Rectangle_2411" data-name="Rectangle 2411" width="220.338" height="12.542" fill="#fff"/>
        </g>
        <g id="Group_5520" data-name="Group 5520" transform="translate(161.315 377.846)">
          <path id="Path_4807" data-name="Path 4807" d="M505.044-30.55a2.126,2.126,0,0,0,2.126-2.125V-45.217a2.126,2.126,0,0,0-2.126-2.125H284.706a2.126,2.126,0,0,0-2.126,2.125v12.542a2.126,2.126,0,0,0,2.126,2.125ZM502.921-34.8H286.832v-8.291H502.921Z" transform="translate(-282.58 47.342)" fill-rule="evenodd"/>
        </g>
        <g id="Group_5521" data-name="Group 5521" transform="translate(0 390.089)">
          <path id="Path_4808" data-name="Path 4808" d="M777.446,511.275s.768-4.162-.4-4.162l-547.324-.088c-1.163,0-.252,4.285-.252,4.285s511.108-.034,547.974-.034Z" transform="translate(-229.132 -507.024)" fill-rule="evenodd"/>
        </g>
        <g id="Group_5522" data-name="Group 5522" transform="translate(237.712 26.097)">
          <path id="Path_4809" data-name="Path 4809" d="M310.14,467.162s1.376,12.555,7.853,15.094c.326.127,6.868-16.974,7.208-16.847.533.2-.9,18.2-.337,18.39,4.963,1.706,9.447,1.076,16.127,1.21.5.011.855-15.916,1.362-15.92s3.894,16.369,4.4,16.348a48.5,48.5,0,0,0,16.652-3.731c.413-.17-6.73-17.151-6.317-17.336.319-.145,10.929,16.507,11.247,16.355a38.081,38.081,0,0,0,8.7-5.343s-11.226-29.445-23.621-33.35-26.4,1.38-31.684,7.806S310.14,467.162,310.14,467.162Z" transform="translate(-310.14 -440.698)" fill-rule="evenodd"/>
        </g>
        <g id="Group_5523" data-name="Group 5523" transform="translate(266.189)">
          <path id="Path_4810" data-name="Path 4810" d="M49.965,169.873s8.979-38.292,29.007-22.123,3.01,37.657,25.507,38.276L92.7,215.713S57.37,137.46,58.577,171.466,49.965,169.873,49.965,169.873Z" transform="translate(-49.965 -143.768)" fill-rule="evenodd"/>
        </g>
        <g id="Group_5524" data-name="Group 5524" transform="translate(268.799 86.529)">
          <path id="Path_4811" data-name="Path 4811" d="M321.408,469.271s8.393,0,10.86-8.056a2.125,2.125,0,0,0-4.064-1.242c-1.547,5.046-6.8,5.049-6.8,5.049a2.125,2.125,0,1,0,0,4.249Z" transform="translate(-319.282 -458.469)" fill-rule="evenodd"/>
        </g>
      </g>
    </g>
  </g>
</svg>
